<?xml version="1.0" encoding="UTF-8"?>
<svg id="Layer_1" data-name="Layer 1" xmlns="http://www.w3.org/2000/svg" xmlns:xlink="http://www.w3.org/1999/xlink" viewBox="0 0 85.04 85.04">
  <defs>
    <style>
      .cls-1 {
        fill: none;
      }

      .cls-2 {
        clip-path: url(#clippath);
      }

      .cls-3 {
        fill: lime;
      }

      .cls-4 {
        fill: #faec21;
      }

      .cls-5 {
        fill: #29a9e0;
      }

      .cls-6 {
        fill: #2e3190;
      }

      .cls-7 {
        clip-path: url(#clippath-1);
      }

      .cls-8 {
        clip-path: url(#clippath-2);
      }

      .cls-9 {
        isolation: isolate;
      }
    </style>
    <clipPath id="clippath">
      <polygon class="cls-1" points="6.32 51.83 42.57 30.76 78.72 51.63 42.46 72.7 6.32 51.83"/>
    </clipPath>
    <clipPath id="clippath-1">
      <polygon class="cls-1" points="6.45 41.19 42.71 20.12 78.54 40.8 42.28 61.87 6.45 41.19"/>
    </clipPath>
    <clipPath id="clippath-2">
      <polygon class="cls-1" points="6.3 30.48 42.56 9.4 78.49 30.15 42.23 51.22 6.3 30.48"/>
    </clipPath>
  </defs>
  <g class="cls-9">
    <g class="cls-2">
      <g>
        <path class="cls-5" d="m12.7,51.73l-2.6-1.5-2.92,1.7,2.6,1.5,2.92-1.7m3.28,1.89l-2.93-1.69-2.92,1.7,2.93,1.69,2.92-1.7m3.29,1.9l-2.93-1.69-2.92,1.7,2.93,1.69,2.92-1.7m3.28,1.89l-2.93-1.69-2.92,1.7,2.93,1.69,2.92-1.7m3.29,1.9l-2.93-1.69-2.92,1.7,2.93,1.69,2.92-1.7m3.28,1.89l-2.93-1.69-2.92,1.7,2.93,1.69,2.92-1.7m3.29,1.9l-2.93-1.69-2.92,1.7,2.93,1.69,2.92-1.7m3.28,1.89l-2.93-1.69-2.92,1.7,2.93,1.69,2.92-1.7m3.29,1.9l-2.93-1.69-2.92,1.7,2.93,1.69,2.92-1.7m3.28,1.89l-2.93-1.69-2.92,1.7,2.93,1.69,2.92-1.7m2.96,1.71l-2.6-1.5-2.92,1.7,2.6,1.5,2.92-1.7m-29.25-20.67l-2.6-1.5-2.91,1.69,2.6,1.5,2.91-1.69m3.28,1.89l-2.93-1.69-2.91,1.69,2.93,1.69,2.91-1.69m3.29,1.9l-2.93-1.69-2.91,1.69,2.93,1.69,2.91-1.69m3.28,1.89l-2.93-1.69-2.91,1.69,2.93,1.69,2.91-1.69m3.29,1.9l-2.93-1.69-2.91,1.69,2.93,1.69,2.91-1.69m3.28,1.89l-2.93-1.69-2.91,1.69,2.93,1.69,2.91-1.69m3.29,1.9l-2.93-1.69-2.91,1.69,2.93,1.69,2.91-1.69m3.28,1.89l-2.93-1.69-2.91,1.69,2.93,1.69,2.91-1.69m3.29,1.9l-2.93-1.69-2.91,1.69,2.93,1.69,2.91-1.69m3.28,1.89l-2.93-1.69-2.91,1.69,2.93,1.69,2.91-1.69m2.96,1.71l-2.6-1.5-2.91,1.69,2.6,1.5,2.91-1.69m-29.26-20.67l-2.6-1.5-2.91,1.69,2.6,1.5,2.91-1.69m3.28,1.89l-2.93-1.69-2.91,1.69,2.93,1.69,2.91-1.69m3.29,1.9l-2.93-1.69-2.91,1.69,2.93,1.69,2.91-1.69m3.28,1.89l-2.93-1.69-2.91,1.69,2.93,1.69,2.91-1.69m3.29,1.9l-2.93-1.69-2.91,1.69,2.93,1.69,2.91-1.69m3.28,1.89l-2.93-1.69-2.91,1.69,2.93,1.69,2.91-1.69m3.29,1.9l-2.93-1.69-2.91,1.69,2.93,1.69,2.91-1.69m3.28,1.89l-2.93-1.69-2.91,1.69,2.93,1.69,2.91-1.69m3.29,1.9l-2.93-1.69-2.91,1.69,2.93,1.69,2.91-1.69m3.28,1.89l-2.93-1.69-2.91,1.69,2.93,1.69,2.91-1.69m2.96,1.71l-2.6-1.5-2.91,1.69,2.6,1.5,2.91-1.69m-29.25-20.67l-2.6-1.5-2.91,1.69,2.6,1.5,2.91-1.69m3.28,1.89l-2.93-1.69-2.91,1.69,2.93,1.69,2.91-1.69m3.29,1.9l-2.93-1.69-2.91,1.69,2.93,1.69,2.91-1.69m3.28,1.89l-2.93-1.69-2.91,1.69,2.93,1.69,2.91-1.69m3.29,1.9l-2.93-1.69-2.91,1.69,2.93,1.69,2.91-1.69m3.28,1.89l-2.93-1.69-2.91,1.69,2.93,1.69,2.91-1.69m3.29,1.9l-2.93-1.69-2.91,1.69,2.93,1.69,2.91-1.69m3.28,1.89l-2.93-1.69-2.91,1.69,2.93,1.69,2.91-1.69m3.29,1.9l-2.93-1.69-2.91,1.69,2.93,1.69,2.91-1.69m3.28,1.89l-2.93-1.69-2.91,1.69,2.93,1.69,2.91-1.69m2.96,1.71l-2.6-1.5-2.91,1.69,2.6,1.5,2.91-1.69m-29.26-20.67l-2.6-1.5-2.91,1.69,2.6,1.5,2.91-1.69m3.28,1.89l-2.93-1.69-2.91,1.69,2.93,1.69,2.91-1.69m3.29,1.9l-2.93-1.69-2.91,1.69,2.93,1.69,2.91-1.69m3.28,1.89l-2.93-1.69-2.91,1.69,2.93,1.69,2.91-1.69m3.29,1.9l-2.93-1.69-2.91,1.69,2.93,1.69,2.91-1.69m3.28,1.89l-2.93-1.69-2.91,1.69,2.93,1.69,2.91-1.69m3.29,1.9l-2.93-1.69-2.91,1.69,2.93,1.69,2.91-1.69m3.28,1.89l-2.93-1.69-2.91,1.69,2.93,1.69,2.91-1.69m3.29,1.9l-2.93-1.69-2.91,1.69,2.93,1.69,2.91-1.69m3.28,1.89l-2.93-1.69-2.91,1.69,2.93,1.69,2.91-1.69m2.96,1.71l-2.6-1.5-2.91,1.69,2.6,1.5,2.91-1.69m-29.25-20.67l-2.6-1.5-2.91,1.69,2.6,1.5,2.91-1.69m3.28,1.89l-2.93-1.69-2.91,1.69,2.93,1.69,2.91-1.69m3.29,1.9l-2.93-1.69-2.91,1.69,2.93,1.69,2.91-1.69m3.28,1.89l-2.93-1.69-2.91,1.69,2.93,1.69,2.91-1.69m3.29,1.9l-2.93-1.69-2.91,1.69,2.93,1.69,2.91-1.69m3.28,1.89l-2.93-1.69-2.91,1.69,2.93,1.69,2.91-1.69m3.29,1.9l-2.93-1.69-2.91,1.69,2.93,1.69,2.91-1.69m3.28,1.89l-2.93-1.69-2.91,1.69,2.93,1.69,2.91-1.69m3.29,1.9l-2.93-1.69-2.91,1.69,2.93,1.69,2.91-1.69m3.28,1.89l-2.93-1.69-2.91,1.69,2.93,1.69,2.91-1.69m2.96,1.71l-2.6-1.5-2.91,1.69,2.6,1.5,2.91-1.69m-29.26-20.67l-2.6-1.5-2.91,1.69,2.6,1.5,2.91-1.69m3.28,1.89l-2.93-1.69-2.91,1.69,2.93,1.69,2.91-1.69m3.29,1.9l-2.93-1.69-2.91,1.69,2.93,1.69,2.91-1.69m3.28,1.89l-2.93-1.69-2.91,1.69,2.93,1.69,2.91-1.69m3.29,1.9l-2.93-1.69-2.91,1.69,2.93,1.69,2.91-1.69m3.28,1.89l-2.93-1.69-2.91,1.69,2.93,1.69,2.91-1.69m3.29,1.9l-2.93-1.69-2.91,1.69,2.93,1.69,2.91-1.69m3.28,1.89l-2.93-1.69-2.91,1.69,2.93,1.69,2.91-1.69m3.29,1.9l-2.93-1.69-2.91,1.69,2.93,1.69,2.91-1.69m3.28,1.89l-2.93-1.69-2.91,1.69,2.93,1.69,2.91-1.69m2.96,1.71l-2.6-1.5-2.91,1.69,2.6,1.5,2.91-1.69m-29.25-20.67l-2.6-1.5-2.91,1.69,2.6,1.5,2.91-1.69m3.28,1.89l-2.93-1.69-2.91,1.69,2.93,1.69,2.91-1.69m3.29,1.9l-2.93-1.69-2.91,1.69,2.93,1.69,2.91-1.69m3.28,1.89l-2.93-1.69-2.91,1.69,2.93,1.69,2.91-1.69m3.29,1.9l-2.93-1.69-2.91,1.69,2.93,1.69,2.91-1.69m3.28,1.89l-2.93-1.69-2.91,1.69,2.93,1.69,2.91-1.69m3.29,1.9l-2.93-1.69-2.91,1.69,2.93,1.69,2.91-1.69m3.28,1.89l-2.93-1.69-2.91,1.69,2.93,1.69,2.91-1.69m3.29,1.9l-2.93-1.69-2.91,1.69,2.93,1.69,2.91-1.69m3.28,1.89l-2.93-1.69-2.91,1.69,2.93,1.69,2.91-1.69m2.96,1.71l-2.6-1.5-2.91,1.69,2.6,1.5,2.91-1.69m-29.26-20.67l-2.6-1.5-2.91,1.69,2.6,1.5,2.91-1.69m3.28,1.89l-2.93-1.69-2.91,1.69,2.93,1.69,2.91-1.69m3.29,1.9l-2.93-1.69-2.91,1.69,2.93,1.69,2.91-1.69m3.28,1.89l-2.93-1.69-2.91,1.69,2.93,1.69,2.91-1.69m3.29,1.9l-2.93-1.69-2.91,1.69,2.93,1.69,2.91-1.69m3.28,1.89l-2.93-1.69-2.91,1.69,2.93,1.69,2.91-1.69m3.29,1.9l-2.93-1.69-2.91,1.69,2.93,1.69,2.91-1.69m3.28,1.89l-2.93-1.69-2.91,1.69,2.93,1.69,2.91-1.69m3.29,1.9l-2.93-1.69-2.91,1.69,2.93,1.69,2.91-1.69m3.28,1.89l-2.93-1.69-2.91,1.69,2.93,1.69,2.91-1.69m2.96,1.71l-2.6-1.5-2.91,1.69,2.6,1.5,2.91-1.69m-29.25-20.67l-2.6-1.5-2.91,1.69,2.6,1.5,2.91-1.69m3.28,1.89l-2.93-1.69-2.91,1.69,2.93,1.69,2.91-1.69m3.29,1.9l-2.93-1.69-2.91,1.69,2.93,1.69,2.91-1.69m3.28,1.89l-2.93-1.69-2.91,1.69,2.93,1.69,2.91-1.69m3.29,1.9l-2.93-1.69-2.91,1.69,2.93,1.69,2.91-1.69m3.28,1.89l-2.93-1.69-2.91,1.69,2.93,1.69,2.91-1.69m3.29,1.9l-2.93-1.69-2.91,1.69,2.93,1.69,2.91-1.69m3.28,1.89l-2.93-1.69-2.91,1.69,2.93,1.69,2.91-1.69m3.29,1.9l-2.93-1.69-2.91,1.69,2.93,1.69,2.91-1.69m3.28,1.89l-2.93-1.69-2.91,1.69,2.93,1.69,2.91-1.69m2.96,1.71l-2.6-1.5-2.91,1.69,2.6,1.5,2.91-1.69m-29.25-20.67l-2.6-1.5-2.92,1.7,2.6,1.5,2.92-1.7m3.28,1.89l-2.93-1.69-2.92,1.7,2.93,1.69,2.92-1.7m3.29,1.9l-2.93-1.69-2.92,1.7,2.93,1.69,2.92-1.7m3.28,1.89l-2.93-1.69-2.92,1.7,2.93,1.69,2.92-1.7m3.29,1.9l-2.93-1.69-2.92,1.7,2.93,1.69,2.92-1.7m3.28,1.89l-2.93-1.69-2.92,1.7,2.93,1.69,2.92-1.7m3.29,1.9l-2.93-1.69-2.92,1.7,2.93,1.69,2.92-1.7m3.28,1.89l-2.93-1.69-2.92,1.7,2.93,1.69,2.92-1.7m3.29,1.9l-2.93-1.69-2.92,1.7,2.93,1.69,2.92-1.7m3.28,1.89l-2.93-1.69-2.92,1.7,2.93,1.69,2.92-1.7m2.96,1.71l-2.6-1.5-2.92,1.7,2.6,1.5,2.92-1.7"/>
        <path d="m45.57,70.71l-.36-.21-2.92,1.7-2.6-1.5-.17.1-.36-.21.17-.1-2.93-1.69-.17.1-.35-.2.17-.1-2.93-1.69-.17.1-.36-.21.17-.1-2.93-1.69-.17.1-.35-.2.17-.1-2.93-1.69-.17.1-.36-.21.17-.1-2.93-1.69-.17.1-.35-.2.17-.1-2.93-1.69-.17.1-.36-.21.17-.1-2.93-1.69-.17.1-.35-.2.17-.1-2.93-1.69-.17.1-.36-.21.17-.1-2.93-1.69-.17.1-.35-.2.17-.1-2.6-1.5,2.92-1.7-.36-.21-3.27,1.9,35.83,20.69,3.27-1.9M13.37,48.33l-.36-.21-2.91,1.69.36.21,2.91-1.69m35.47,20.48l-.36-.21-2.91,1.69.36.21,2.91-1.69m-32.21-22.38l-.36-.21-2.91,1.69.36.21,2.91-1.69m35.47,20.48l-.36-.21-2.91,1.69.36.21,2.91-1.69m-32.21-22.38l-.36-.21-2.91,1.69.36.21,2.91-1.69m35.47,20.48l-.36-.21-2.91,1.69.36.21,2.91-1.69m-32.21-22.38l-.36-.21-2.91,1.69.36.21,2.91-1.69m35.47,20.48l-.36-.21-2.91,1.69.36.21,2.91-1.69m-32.21-22.38l-.36-.21-2.91,1.69.36.21,2.91-1.69m35.47,20.48l-.36-.21-2.91,1.69.36.21,2.91-1.69m-32.21-22.38l-.36-.21-2.91,1.69.36.21,2.91-1.69m35.47,20.48l-.36-.21-2.91,1.69.36.21,2.91-1.69m-32.21-22.38l-.36-.21-2.91,1.69.36.21,2.91-1.69m35.47,20.48l-.36-.21-2.91,1.69.36.21,2.91-1.69m-32.21-22.38l-.36-.21-2.91,1.69.36.21,2.91-1.69m35.47,20.48l-.36-.21-2.91,1.69.36.21,2.91-1.69m-32.21-22.38l-.36-.21-2.91,1.69.36.21,2.91-1.69m35.47,20.48l-.36-.21-2.91,1.69.36.21,2.91-1.69m3.62-2.1l-35.83-20.69-3.27,1.9.36.21,2.92-1.7,2.6,1.5.18-.1.35.2-.18.1,2.93,1.69.18-.1.36.21-.18.1,2.93,1.69.18-.1.35.2-.18.1,2.93,1.69.18-.1.36.21-.18.1,2.93,1.69.18-.1.35.2-.18.1,2.93,1.69.18-.1.36.21-.18.1,2.93,1.69.18-.1.35.2-.18.1,2.93,1.69.18-.1.36.21-.18.1,2.93,1.69.18-.1.35.2-.18.1,2.93,1.69.18-.1.36.21-.18.1,2.6,1.5-2.92,1.7.36.21,3.27-1.9"/>
        <path d="m13.05,51.94l-.35-.2-2.92,1.7-.17.1.35.2.17-.1,2.92-1.7m3.27-1.9l-.35-.2-2.91,1.69.35.2,2.91-1.69m3.26-1.89l-.35-.2-2.91,1.69.35.2,2.91-1.69m3.27-1.9l-.35-.2-2.91,1.69.35.2,2.91-1.69m3.26-1.89l-.35-.2-2.91,1.69.35.2,2.91-1.69m3.27-1.9l-.35-.2-2.91,1.69.35.2,2.91-1.69m3.26-1.89l-.35-.2-2.91,1.69.35.2,2.91-1.69m3.27-1.9l-.35-.2-2.91,1.69.35.2,2.91-1.69m3.26-1.89l-.35-.2-2.91,1.69.35.2,2.91-1.69m3.27-1.9l-.35-.2-2.91,1.69.35.2,2.91-1.69m3.44-2l-.35-.2-.18.1-2.92,1.7.35.2,2.92-1.7.18-.1"/>
        <path d="m16.34,53.83l-.36-.21-2.92,1.7-.17.1.36.21.17-.1,2.92-1.7m3.27-1.9l-.36-.21-2.91,1.69.36.21,2.91-1.69m3.26-1.89l-.36-.21-2.91,1.69.36.21,2.91-1.69m3.27-1.9l-.36-.21-2.91,1.69.36.21,2.91-1.69m3.26-1.89l-.36-.21-2.91,1.69.36.21,2.91-1.69m3.27-1.9l-.36-.21-2.91,1.69.36.21,2.91-1.69m3.26-1.89l-.36-.21-2.91,1.69.36.21,2.91-1.69m3.27-1.9l-.36-.21-2.91,1.69.36.21,2.91-1.69m3.26-1.89l-.36-.21-2.91,1.69.36.21,2.91-1.69m3.27-1.9l-.36-.21-2.91,1.69.36.21,2.91-1.69m3.44-2l-.36-.21-.18.1-2.92,1.7.36.21,2.92-1.7.18-.1"/>
        <path d="m19.62,55.73l-.35-.2-2.92,1.7-.17.1.35.2.17-.1,2.92-1.7m3.27-1.9l-.35-.2-2.91,1.69.35.2,2.91-1.69m3.26-1.89l-.35-.2-2.91,1.69.35.2,2.91-1.69m3.27-1.9l-.35-.2-2.91,1.69.35.2,2.91-1.69m3.26-1.89l-.35-.2-2.91,1.69.35.2,2.91-1.69m3.27-1.9l-.35-.2-2.91,1.69.35.2,2.91-1.69m3.26-1.89l-.35-.2-2.91,1.69.35.2,2.91-1.69m3.27-1.9l-.35-.2-2.91,1.69.35.2,2.91-1.69m3.26-1.89l-.35-.2-2.91,1.69.35.2,2.91-1.69m3.27-1.9l-.35-.2-2.91,1.69.35.2,2.91-1.69m3.44-2l-.35-.2-.18.1-2.92,1.7.35.2,2.92-1.7.18-.1"/>
        <path d="m22.91,57.63l-.36-.21-2.92,1.7-.17.1.36.21.17-.1,2.92-1.7m3.27-1.9l-.36-.21-2.91,1.69.36.21,2.91-1.69m3.26-1.89l-.36-.21-2.91,1.69.36.21,2.91-1.69m3.27-1.9l-.36-.21-2.91,1.69.36.21,2.91-1.69m3.26-1.89l-.36-.21-2.91,1.69.36.21,2.91-1.69m3.27-1.9l-.36-.21-2.91,1.69.36.21,2.91-1.69m3.26-1.89l-.36-.21-2.91,1.69.36.21,2.91-1.69m3.27-1.9l-.36-.21-2.91,1.69.36.21,2.91-1.69m3.26-1.89l-.36-.21-2.91,1.69.36.21,2.91-1.69m3.27-1.9l-.36-.21-2.91,1.69.36.21,2.91-1.69m3.44-2l-.36-.21-.18.1-2.92,1.7.36.21,2.92-1.7.18-.1"/>
        <path d="m26.19,59.52l-.35-.2-2.92,1.7-.17.1.35.2.17-.1,2.92-1.7m3.27-1.9l-.35-.2-2.91,1.69.35.2,2.91-1.69m3.26-1.89l-.35-.2-2.91,1.69.35.2,2.91-1.69m3.27-1.9l-.35-.2-2.91,1.69.35.2,2.91-1.69m3.26-1.89l-.35-.2-2.91,1.69.35.2,2.91-1.69m3.27-1.9l-.35-.2-2.91,1.69.35.2,2.91-1.69m3.26-1.89l-.35-.2-2.91,1.69.35.2,2.91-1.69m3.27-1.9l-.35-.2-2.91,1.69.35.2,2.91-1.69m3.26-1.89l-.35-.2-2.91,1.69.35.2,2.91-1.69m3.27-1.9l-.35-.2-2.91,1.69.35.2,2.91-1.69m3.44-2l-.35-.2-.18.1-2.92,1.7.35.2,2.92-1.7.18-.1"/>
        <path d="m29.48,61.42l-.36-.21-2.92,1.7-.17.1.36.21.17-.1,2.92-1.7m3.27-1.9l-.36-.21-2.91,1.69.36.21,2.91-1.69m3.26-1.89l-.36-.21-2.91,1.69.36.21,2.91-1.69m3.27-1.9l-.36-.21-2.91,1.69.36.21,2.91-1.69m3.26-1.89l-.36-.21-2.91,1.69.36.21,2.91-1.69m3.27-1.9l-.36-.21-2.91,1.69.36.21,2.91-1.69m3.26-1.89l-.36-.21-2.91,1.69.36.21,2.91-1.69m3.27-1.9l-.36-.21-2.91,1.69.36.21,2.91-1.69m3.26-1.89l-.36-.21-2.91,1.69.36.21,2.91-1.69m3.27-1.9l-.36-.21-2.91,1.69.36.21,2.91-1.69m3.44-2l-.36-.21-.18.1-2.92,1.7.36.21,2.92-1.7.18-.1"/>
        <path d="m32.76,63.31l-.35-.2-2.92,1.7-.17.1.35.2.17-.1,2.92-1.7m3.27-1.9l-.35-.2-2.91,1.69.35.2,2.91-1.69m3.26-1.89l-.35-.2-2.91,1.69.35.2,2.91-1.69m3.27-1.9l-.35-.2-2.91,1.69.35.2,2.91-1.69m3.26-1.89l-.35-.2-2.91,1.69.35.2,2.91-1.69m3.27-1.9l-.35-.2-2.91,1.69.35.2,2.91-1.69m3.26-1.89l-.35-.2-2.91,1.69.35.2,2.91-1.69m3.27-1.9l-.35-.2-2.91,1.69.35.2,2.91-1.69m3.26-1.89l-.35-.2-2.91,1.69.35.2,2.91-1.69m3.27-1.9l-.35-.2-2.91,1.69.35.2,2.91-1.69m3.44-2l-.35-.2-.18.1-2.92,1.7.35.2,2.92-1.7.18-.1"/>
        <path d="m36.05,65.21l-.36-.21-2.92,1.7-.17.1.36.21.17-.1,2.92-1.7m3.27-1.9l-.36-.21-2.91,1.69.36.21,2.91-1.69m3.26-1.89l-.36-.21-2.91,1.69.36.21,2.91-1.69m3.27-1.9l-.36-.21-2.91,1.69.36.21,2.91-1.69m3.26-1.89l-.36-.21-2.91,1.69.36.21,2.91-1.69m3.27-1.9l-.36-.21-2.91,1.69.36.21,2.91-1.69m3.26-1.89l-.36-.21-2.91,1.69.36.21,2.91-1.69m3.27-1.9l-.36-.21-2.91,1.69.36.21,2.91-1.69m3.26-1.89l-.36-.21-2.91,1.69.36.21,2.91-1.69m3.27-1.9l-.36-.21-2.91,1.69.36.21,2.91-1.69m3.44-2l-.36-.21-.18.1-2.92,1.7.36.21,2.92-1.7.18-.1"/>
        <path d="m39.33,67.11l-.35-.2-2.92,1.7-.17.1.35.2.17-.1,2.92-1.7m3.27-1.9l-.35-.2-2.91,1.69.35.2,2.91-1.69m3.26-1.89l-.35-.2-2.91,1.69.35.2,2.91-1.69m3.27-1.9l-.35-.2-2.91,1.69.35.2,2.91-1.69m3.26-1.89l-.35-.2-2.91,1.69.35.2,2.91-1.69m3.27-1.9l-.35-.2-2.91,1.69.35.2,2.91-1.69m3.26-1.89l-.35-.2-2.91,1.69.35.2,2.91-1.69m3.27-1.9l-.35-.2-2.91,1.69.35.2,2.91-1.69m3.26-1.89l-.35-.2-2.91,1.69.35.2,2.91-1.69m3.27-1.9l-.35-.2-2.91,1.69.35.2,2.91-1.69m3.44-2l-.35-.2-.18.1-2.92,1.7.35.2,2.92-1.7.18-.1"/>
        <path d="m42.62,69.01l-.36-.21-2.92,1.7-.17.1.36.21.17-.1,2.92-1.7m3.27-1.9l-.36-.21-2.91,1.69.36.21,2.91-1.69m3.26-1.89l-.36-.21-2.91,1.69.36.21,2.91-1.69m3.27-1.9l-.36-.21-2.91,1.69.36.21,2.91-1.69m3.26-1.89l-.36-.21-2.91,1.69.36.21,2.91-1.69m3.27-1.9l-.36-.21-2.91,1.69.36.21,2.91-1.69m3.26-1.89l-.36-.21-2.91,1.69.36.21,2.91-1.69m3.27-1.9l-.36-.21-2.91,1.69.36.21,2.91-1.69m3.26-1.89l-.36-.21-2.91,1.69.36.21,2.91-1.69m3.27-1.9l-.36-.21-2.91,1.69.36.21,2.91-1.69m3.44-2l-.36-.21-.18.1-2.92,1.7.36.21,2.92-1.7.18-.1"/>
        <polyline points="46.08 70.59 45.93 70.51 45.57 70.3 42.97 68.8 42.62 68.59 39.68 66.9 39.33 66.7 36.4 65.01 36.05 64.8 33.11 63.11 32.76 62.91 29.83 61.21 29.48 61.01 26.55 59.32 26.19 59.11 23.26 57.42 22.91 57.21 19.98 55.52 19.62 55.32 16.69 53.63 16.34 53.42 13.41 51.73 13.05 51.53 10.46 50.03 10.1 49.82 9.94 49.73 9.58 49.93 9.74 50.03 10.1 50.23 12.7 51.73 13.05 51.94 15.98 53.63 16.34 53.83 19.27 55.53 19.62 55.73 22.55 57.42 22.91 57.63 25.84 59.32 26.19 59.52 29.12 61.21 29.48 61.42 32.41 63.11 32.76 63.31 35.69 65.01 36.05 65.21 38.98 66.9 39.33 67.11 42.26 68.8 42.62 69.01 45.22 70.51 45.57 70.71 45.73 70.8 46.08 70.59"/>
        <polyline points="49.34 68.7 49.19 68.61 48.83 68.41 46.23 66.9 45.88 66.7 42.95 65.01 42.59 64.8 39.66 63.11 39.31 62.91 36.38 61.21 36.02 61.01 33.09 59.32 32.74 59.11 29.81 57.42 29.45 57.22 26.52 55.53 26.17 55.32 23.24 53.63 22.88 53.42 19.95 51.73 19.6 51.53 16.67 49.83 16.31 49.63 13.72 48.13 13.36 47.92 13.2 47.83 12.85 48.04 13.01 48.13 13.37 48.33 15.97 49.83 16.32 50.04 19.25 51.73 19.61 51.94 22.54 53.63 22.89 53.83 25.82 55.52 26.17 55.73 29.11 57.42 29.46 57.62 32.39 59.32 32.74 59.52 35.68 61.21 36.03 61.42 38.96 63.11 39.31 63.31 42.25 65.01 42.6 65.21 45.53 66.9 45.88 67.11 48.48 68.61 48.84 68.81 48.99 68.9 49.34 68.7"/>
        <polyline points="52.61 66.8 52.46 66.71 52.1 66.51 49.5 65.01 49.14 64.8 46.21 63.11 45.86 62.91 42.93 61.21 42.57 61.01 39.64 59.32 39.29 59.11 36.36 57.42 36 57.21 33.07 55.52 32.72 55.32 29.79 53.63 29.43 53.42 26.5 51.73 26.15 51.53 23.22 49.83 22.86 49.63 19.93 47.94 19.58 47.73 16.98 46.23 16.63 46.03 16.47 45.93 16.11 46.14 16.27 46.23 16.63 46.44 19.23 47.94 19.58 48.14 22.51 49.83 22.87 50.04 25.8 51.73 26.15 51.94 29.08 53.63 29.44 53.83 32.37 55.53 32.72 55.73 35.65 57.42 36.01 57.63 38.94 59.32 39.29 59.52 42.22 61.21 42.57 61.42 45.51 63.11 45.86 63.31 48.79 65.01 49.14 65.21 51.74 66.71 52.1 66.92 52.25 67.01 52.61 66.8"/>
        <polyline points="55.87 64.91 55.72 64.82 55.36 64.61 52.76 63.11 52.4 62.91 49.47 61.21 49.12 61.01 46.19 59.32 45.83 59.11 42.9 57.42 42.55 57.22 39.62 55.53 39.26 55.32 36.33 53.63 35.98 53.42 33.05 51.73 32.69 51.53 29.76 49.83 29.41 49.63 26.48 47.94 26.12 47.73 23.19 46.04 22.84 45.84 20.24 44.34 19.89 44.13 19.73 44.04 19.38 44.24 19.54 44.33 19.89 44.54 22.49 46.04 22.84 46.24 25.77 47.94 26.13 48.14 29.06 49.83 29.41 50.04 32.34 51.73 32.7 51.94 35.63 53.63 35.98 53.83 38.91 55.52 39.27 55.73 42.2 57.42 42.55 57.62 45.48 59.32 45.84 59.52 48.77 61.21 49.12 61.42 52.05 63.11 52.41 63.31 55.01 64.81 55.37 65.02 55.52 65.11 55.87 64.91"/>
        <polyline points="59.14 63.01 58.98 62.92 58.63 62.71 56.03 61.21 55.67 61.01 52.74 59.32 52.39 59.11 49.46 57.42 49.1 57.21 46.17 55.52 45.82 55.32 42.89 53.63 42.53 53.42 39.6 51.73 39.25 51.53 36.32 49.83 35.96 49.63 33.03 47.94 32.68 47.73 29.75 46.04 29.39 45.83 26.46 44.14 26.11 43.94 23.51 42.44 23.15 42.23 22.99 42.14 22.64 42.35 22.8 42.44 23.15 42.65 25.75 44.15 26.1 44.35 29.04 46.04 29.39 46.25 32.32 47.94 32.67 48.14 35.6 49.83 35.96 50.04 38.89 51.73 39.24 51.94 42.17 53.63 42.53 53.83 45.46 55.53 45.81 55.73 48.74 57.42 49.1 57.63 52.03 59.32 52.38 59.52 55.31 61.21 55.67 61.42 58.27 62.92 58.63 63.13 58.78 63.22 59.14 63.01"/>
        <polyline points="62.4 61.11 62.24 61.03 61.89 60.82 59.29 59.32 58.93 59.11 56 57.42 55.65 57.22 52.72 55.53 52.36 55.32 49.43 53.63 49.08 53.42 46.15 51.73 45.79 51.53 42.86 49.83 42.51 49.63 39.58 47.94 39.22 47.73 36.29 46.04 35.94 45.84 33.01 44.15 32.65 43.94 29.72 42.25 29.37 42.05 26.77 40.54 26.41 40.34 26.25 40.25 25.9 40.45 26.06 40.54 26.42 40.75 29.02 42.25 29.37 42.45 32.3 44.14 32.66 44.35 35.59 46.04 35.94 46.24 38.87 47.94 39.23 48.14 42.16 49.83 42.51 50.04 45.44 51.73 45.8 51.94 48.73 53.63 49.08 53.83 52.01 55.52 52.37 55.73 55.3 57.42 55.65 57.62 58.58 59.31 58.94 59.52 61.54 61.02 61.89 61.23 62.05 61.32 62.4 61.11"/>
        <polyline points="65.66 59.22 65.51 59.13 65.15 58.92 62.55 57.42 62.2 57.21 59.27 55.52 58.91 55.32 55.98 53.63 55.63 53.42 52.7 51.73 52.35 51.53 49.41 49.83 49.06 49.63 46.13 47.94 45.78 47.73 42.84 46.04 42.49 45.83 39.56 44.14 39.21 43.94 36.27 42.25 35.92 42.04 32.99 40.35 32.64 40.15 30.04 38.65 29.68 38.44 29.52 38.35 29.16 38.55 29.32 38.65 29.68 38.85 32.28 40.35 32.63 40.56 35.56 42.25 35.92 42.45 38.85 44.15 39.2 44.35 42.13 46.04 42.49 46.25 45.42 47.94 45.77 48.14 48.7 49.83 49.06 50.04 51.99 51.73 52.34 51.94 55.27 53.63 55.63 53.83 58.56 55.53 58.91 55.73 61.84 57.42 62.2 57.63 64.8 59.13 65.16 59.33 65.31 59.42 65.66 59.22"/>
        <polyline points="68.92 57.32 68.77 57.23 68.41 57.03 65.81 55.53 65.46 55.32 62.53 53.63 62.18 53.42 59.24 51.73 58.89 51.53 55.96 49.83 55.61 49.63 52.67 47.94 52.32 47.73 49.39 46.04 49.04 45.84 46.11 44.15 45.75 43.94 42.82 42.25 42.47 42.05 39.54 40.35 39.18 40.15 36.25 38.45 35.9 38.25 33.3 36.75 32.94 36.55 32.78 36.45 32.43 36.66 32.59 36.75 32.95 36.95 35.55 38.45 35.9 38.66 38.83 40.35 39.19 40.56 42.12 42.25 42.47 42.45 45.4 44.14 45.76 44.35 48.69 46.04 49.04 46.24 51.97 47.94 52.33 48.14 55.26 49.83 55.61 50.04 58.54 51.73 58.9 51.94 61.83 53.63 62.18 53.83 65.11 55.52 65.47 55.73 68.06 57.23 68.42 57.43 68.58 57.52 68.92 57.32"/>
        <polyline points="72.19 55.42 72.04 55.33 71.68 55.13 69.08 53.63 68.72 53.42 65.79 51.73 65.44 51.53 62.51 49.83 62.15 49.63 59.22 47.94 58.87 47.73 55.94 46.04 55.58 45.83 52.65 44.14 52.3 43.94 49.37 42.25 49.01 42.04 46.08 40.35 45.73 40.15 42.8 38.45 42.44 38.25 39.51 36.56 39.16 36.35 36.56 34.85 36.21 34.65 36.05 34.55 35.69 34.76 35.85 34.85 36.21 35.06 38.81 36.56 39.16 36.76 42.09 38.45 42.45 38.66 45.38 40.35 45.73 40.56 48.66 42.25 49.02 42.45 51.95 44.15 52.3 44.35 55.23 46.04 55.59 46.25 58.52 47.94 58.87 48.14 61.8 49.83 62.16 50.04 65.09 51.73 65.44 51.94 68.37 53.63 68.73 53.83 71.32 55.33 71.68 55.54 71.84 55.63 72.19 55.42"/>
        <polyline points="75.45 53.53 75.3 53.44 74.94 53.23 72.34 51.73 71.98 51.53 69.05 49.83 68.7 49.63 65.77 47.94 65.41 47.73 62.48 46.04 62.13 45.84 59.2 44.15 58.84 43.94 55.91 42.25 55.56 42.05 52.63 40.35 52.27 40.15 49.34 38.45 48.99 38.25 46.06 36.56 45.7 36.35 42.77 34.66 42.42 34.46 39.82 32.96 39.47 32.75 39.31 32.66 38.96 32.86 39.12 32.95 39.48 33.16 42.07 34.66 42.43 34.86 45.36 36.56 45.71 36.76 48.64 38.45 49 38.66 51.93 40.35 52.28 40.56 55.21 42.25 55.57 42.45 58.5 44.14 58.85 44.35 61.78 46.04 62.13 46.24 65.07 47.94 65.42 48.14 68.35 49.83 68.7 50.04 71.64 51.73 71.99 51.94 74.59 53.44 74.95 53.64 75.1 53.73 75.45 53.53"/>
      </g>
    </g>
  </g>
  <g class="cls-9">
    <g class="cls-7">
      <g>
        <path class="cls-6" d="m15.97,43.09c-1.46-.84-1.48-2.21-.02-3.06s3.82-.84,5.28,0,1.47,2.22.02,3.06-3.81.85-5.28,0m18.78,8.96c-.32-.19-.59-.41-.79-.67-.83-1.09.02-2.37,1.92-2.85,1.44-.37,3.07-.16,4.13.45.32.19.59.41.78.67.83,1.1-.02,2.37-1.91,2.85-1.45.36-3.08.16-4.13-.45m-9.95-6.91c-.32-.18-.59-.41-.78-.66-.83-1.1.02-2.37,1.91-2.85,1.45-.37,3.08-.16,4.14.45.32.19.59.41.78.67.83,1.09-.03,2.37-1.91,2.85-1.45.37-3.09.15-4.14-.46m21.88,7.74c-.32-.19-.59-.41-.79-.67-.83-1.1.02-2.37,1.91-2.85,1.45-.36,3.08-.16,4.13.45.32.19.59.41.79.67.83,1.09-.02,2.37-1.91,2.85-1.45.36-3.08.16-4.13-.45m-9.95-13.12c-.32-.19-.59-.41-.79-.67-.83-1.09.02-2.37,1.91-2.85,1.45-.36,3.08-.16,4.13.45.32.19.59.41.79.67.84,1.09-.02,2.37-1.91,2.85-1.45.36-3.08.16-4.13-.45m11.35,6.55c-.32-.19-.59-.41-.79-.67-.83-1.1.02-2.37,1.91-2.85,1.45-.36,3.08-.16,4.13.45.32.19.59.41.79.67.83,1.09-.02,2.37-1.91,2.85-1.45.36-3.08.16-4.13-.45m.36-7.54c-.32-.19-.59-.41-.79-.67-.83-1.09.02-2.37,1.91-2.85,1.45-.36,3.08-.16,4.13.45.32.19.59.41.79.67.84,1.09-.02,2.37-1.91,2.85-1.45.36-3.08.16-4.13-.45m-9.57-7.25c-.32-.19-.59-.41-.78-.67-.83-1.09.03-2.37,1.92-2.85,1.44-.37,3.07-.16,4.13.45.32.19.59.41.78.67.84,1.09-.02,2.37-1.91,2.85-1.45.37-3.08.16-4.14-.45m23.89,11.07c-.32-.19-.59-.41-.79-.67-.83-1.09.02-2.37,1.91-2.85,1.45-.36,3.08-.16,4.13.45.32.19.59.41.79.67.84,1.09-.02,2.37-1.91,2.85-1.45.36-3.08.16-4.13-.45m15.07-1.8l-35.12-20.27L7.15,41.19l35.12,20.27,35.55-20.66"/>
        <path d="m7.15,41.19l35.55-20.66,35.12,20.27-35.55,20.66L7.15,41.19m71.38-.39l-35.82-20.68L6.45,41.19l35.82,20.68,36.26-21.07"/>
        <path class="cls-3" d="m21.23,40.03c-1.46-.84-3.83-.84-5.28,0s-1.44,2.22.02,3.06,3.82.85,5.28,0,1.45-2.21-.02-3.06"/>
        <path class="cls-3" d="m30.06,42.08c-1.06-.61-2.69-.82-4.14-.45-1.89.48-2.75,1.75-1.91,2.85.19.25.46.47.78.66,1.06.61,2.7.82,4.14.46,1.88-.48,2.74-1.75,1.91-2.85-.19-.26-.46-.48-.78-.67"/>
        <path class="cls-3" d="m40,48.99c-1.06-.61-2.69-.82-4.13-.45-1.89.48-2.75,1.75-1.92,2.85.19.26.46.48.79.67,1.06.61,2.69.82,4.13.45,1.89-.48,2.75-1.75,1.91-2.85-.19-.26-.46-.48-.78-.67"/>
        <path class="cls-3" d="m53.33,43.26c-1.06-.61-2.69-.82-4.13-.45-1.89.48-2.75,1.75-1.91,2.85.19.26.46.48.79.67,1.06.61,2.69.82,4.13.45,1.89-.48,2.75-1.76,1.91-2.85-.19-.26-.46-.48-.79-.67"/>
        <path class="cls-3" d="m41.98,36.7c-1.06-.61-2.69-.82-4.13-.45-1.89.48-2.74,1.75-1.91,2.85.19.26.46.48.79.67,1.06.61,2.69.82,4.13.45,1.89-.48,2.75-1.75,1.91-2.85-.19-.26-.46-.48-.79-.67"/>
        <path class="cls-3" d="m53.7,35.71c-1.06-.61-2.69-.82-4.13-.45-1.89.48-2.74,1.75-1.91,2.85.19.26.46.48.79.67,1.06.61,2.69.82,4.13.45,1.89-.48,2.75-1.75,1.91-2.85-.19-.26-.46-.48-.79-.67"/>
        <path class="cls-3" d="m51.93,49.82c-1.06-.61-2.69-.82-4.13-.45-1.89.48-2.75,1.75-1.91,2.85.19.26.46.48.79.67,1.06.61,2.69.82,4.13.45,1.89-.48,2.75-1.76,1.91-2.85-.19-.26-.46-.48-.79-.67"/>
        <path class="cls-3" d="m68.01,39.54c-1.06-.61-2.69-.82-4.13-.45-1.89.48-2.74,1.75-1.91,2.85.19.26.46.48.79.67,1.06.61,2.69.82,4.13.45,1.89-.48,2.75-1.75,1.91-2.85-.19-.26-.46-.48-.79-.67"/>
        <path class="cls-3" d="m44.12,28.47c-1.06-.61-2.69-.82-4.13-.45-1.89.48-2.75,1.75-1.92,2.85.19.26.46.48.78.67,1.06.61,2.69.82,4.14.45,1.89-.48,2.75-1.75,1.91-2.85-.19-.26-.46-.48-.78-.67"/>
      </g>
    </g>
  </g>
  <g class="cls-9">
    <g class="cls-8">
      <g>
        <polyline class="cls-4" points="72.24 33.37 44.25 17.21 14.24 34.65 42.23 50.81 72.24 33.37"/>
        <path d="m14.24,34.65l30.01-17.44,27.98,16.16-30.01,17.44-27.98-16.16m58.7-1.28l-28.7-16.57-30.71,17.85,28.7,16.57,30.71-17.85"/>
        <polyline class="cls-4" points="42.73 16.33 37.01 13.03 7 30.47 12.72 33.77 42.73 16.33"/>
        <path d="m7,30.47l30.01-17.44,5.72,3.3-30.01,17.44-5.72-3.3m36.44-14.13l-6.43-3.71L6.3,30.48l6.43,3.71,30.71-17.85"/>
        <polyline class="cls-4" points="77.78 30.15 49.8 13.99 45.59 16.44 73.57 32.59 77.78 30.15"/>
        <path d="m45.59,16.44l4.21-2.45,27.98,16.16-4.21,2.45-27.98-16.16m32.91,13.71l-28.7-16.57-4.92,2.86,28.7,16.57,4.92-2.86"/>
      </g>
    </g>
  </g>
</svg>
