<?xml version="1.0" encoding="utf-8"?>
<!-- Generator: Adobe Illustrator 26.3.0, SVG Export Plug-In . SVG Version: 6.00 Build 0)  -->
<svg version="1.1"
	 id="svg1286" xmlns:svg="http://www.w3.org/2000/svg" xmlns:dc="http://purl.org/dc/elements/1.1/" xmlns:cc="http://creativecommons.org/ns#" xmlns:inkscape="http://www.inkscape.org/namespaces/inkscape" xmlns:sodipodi="http://sodipodi.sourceforge.net/DTD/sodipodi-0.dtd" xmlns:rdf="http://www.w3.org/1999/02/22-rdf-syntax-ns#" inkscape:export-xdpi="100.3" inkscape:export-ydpi="100.3" inkscape:export-filename="/Users/giovanni.palla/Documents/Projects/squidpy/squidpy_vertical.png" sodipodi:docname="squidpy_vertical.svg" inkscape:version="1.0 (4035a4f, 2020-05-01)"
	 xmlns="http://www.w3.org/2000/svg" xmlns:xlink="http://www.w3.org/1999/xlink" x="0px" y="0px" viewBox="0 0 326 330"
	 style="enable-background:new 0 0 326 330;" xml:space="preserve">
<style type="text/css">
	.st0{fill:url(#path1081_00000077292124799216193760000010242545751076791700_);}
	.st1{fill:url(#path1088_00000124124772780520480200000010459679518146243743_);}
	.st2{fill:#5B64B1;}
	.st3{fill:#949DF0;}
	.st4{fill:#816244;}
	.st5{fill:#FFDB2D;}
	.st6{fill:#56412D;}
	.st7{fill:#FFC42D;}
</style>
<sodipodi:namedview  bordercolor="#666666" borderopacity="1.0" id="base" inkscape:current-layer="layer1" inkscape:cx="214.79239" inkscape:cy="364.0233" inkscape:document-rotation="0" inkscape:document-units="mm" inkscape:pagecheckerboard="true" inkscape:pageopacity="0.0" inkscape:pageshadow="2" inkscape:window-height="1035" inkscape:window-maximized="0" inkscape:window-width="1883" inkscape:window-x="37" inkscape:window-y="23" inkscape:zoom="0.98994949" pagecolor="#ffffff" showgrid="false" units="pt">
	</sodipodi:namedview>
<g id="layer1" inkscape:label="Layer 1" inkscape:groupmode="layer">

		<linearGradient id="path1081_00000089547424369013396580000016002055607128418713_" gradientUnits="userSpaceOnUse" x1="2226.3518" y1="-445.5382" x2="3189.2517" y2="-445.5382" gradientTransform="matrix(0.3313 0 0 -0.3313 -724.6276 485.1129)">
		<stop  offset="0" style="stop-color:#5B64B1"/>
		<stop  offset="0.9988" style="stop-color:#949DF0"/>
	</linearGradient>
	<path id="path1081" style="fill:url(#path1081_00000089547424369013396580000016002055607128418713_);" d="M79.5,641.6
		c0,2.3-0.4,4.4-1.3,6.4c-0.9,2-2,3.7-3.5,5.2c-1.5,1.5-3.2,2.7-5.2,3.5c-2,0.9-4.1,1.3-6.4,1.3H13v-8.2H63c1.2,0,2.2-0.2,3.2-0.6
		c1-0.4,1.9-1,2.6-1.8s1.3-1.6,1.8-2.6s0.6-2.1,0.6-3.2c0-1.1-0.2-2.2-0.6-3.1c-0.4-1-1-1.9-1.8-2.6c-0.7-0.7-1.6-1.3-2.6-1.8
		c-1-0.4-2.1-0.6-3.2-0.6H29.5c-2.3,0-4.4-0.4-6.4-1.3s-3.7-2-5.2-3.5c-1.5-1.5-2.7-3.2-3.5-5.2c-0.9-2-1.3-4.1-1.3-6.4
		c0-2.3,0.4-4.3,1.3-6.4c0.9-2,2.1-3.7,3.5-5.2c1.5-1.5,3.2-2.7,5.2-3.5c2-0.9,4.1-1.3,6.4-1.3h45.9v8.2H29.5
		c-1.1,0-2.2,0.2-3.2,0.6c-1,0.4-1.9,1-2.6,1.8c-0.8,0.8-1.3,1.6-1.8,2.6c-0.4,1-0.6,2.1-0.6,3.2c0,1.1,0.2,2.2,0.6,3.2
		c0.4,1,1,1.9,1.8,2.6c0.8,0.8,1.6,1.3,2.6,1.8c1,0.4,2.1,0.6,3.2,0.6H63c2.3,0,4.4,0.4,6.4,1.3c2,0.9,3.7,2.1,5.2,3.5
		c1.5,1.5,2.7,3.2,3.5,5.2C79,637.2,79.5,639.4,79.5,641.6L79.5,641.6z M141,664.8l-7.4-7c-0.3,0.1-0.7,0.1-1,0.1c-0.4,0-0.7,0-1,0
		h-19.2c-4,0-7.6-0.7-10.9-2.3c-3.3-1.5-6.1-3.5-8.4-6.1c-2.3-2.6-4.1-5.6-5.4-9.1c-1.3-3.5-1.9-7.2-1.9-11.2
		c0-3.9,0.6-7.7,1.9-11.1s3-6.5,5.4-9.1c2.3-2.6,5.1-4.6,8.4-6.2c3.3-1.5,6.9-2.3,10.9-2.3h19.2c4,0,7.6,0.8,10.8,2.3
		c3.2,1.5,6,3.5,8.3,6.2c2.3,2.6,4.1,5.6,5.4,9.1s1.9,7.2,1.9,11.1c0,2.9-0.4,5.8-1.1,8.5c-0.7,2.7-1.7,5.2-3.1,7.5
		c-1.3,2.3-3,4.3-4.9,6.1c-1.9,1.8-4.1,3.2-6.5,4.3l9.6,9.1L141,664.8L141,664.8z M149.7,629.3c0-2.8-0.4-5.5-1.3-8
		c-0.8-2.5-2-4.6-3.6-6.5c-1.6-1.9-3.5-3.3-5.7-4.4c-2.3-1.1-4.8-1.6-7.6-1.6h-19.2c-2.8,0-5.4,0.5-7.7,1.6
		c-2.3,1.1-4.2,2.6-5.7,4.4s-2.8,4-3.6,6.5c-0.8,2.5-1.3,5.1-1.3,8c0,2.8,0.4,5.5,1.3,8c0.8,2.5,2.1,4.7,3.6,6.5
		c1.6,1.9,3.5,3.3,5.7,4.4c2.3,1.1,4.8,1.6,7.7,1.6H125l-7.9-7.4h11.5l7.2,7c2.2-0.5,4.1-1.4,5.8-2.6c1.7-1.2,3.2-2.7,4.4-4.5
		c1.2-1.8,2.1-3.7,2.7-5.9C149.4,634.1,149.7,631.8,149.7,629.3L149.7,629.3z M230.2,600.7l-0.1,28.7c0,2.7-0.3,5.2-1,7.7
		c-0.7,2.5-1.7,4.7-2.9,6.8c-1.3,2.1-2.7,4-4.5,5.8c-1.8,1.8-3.7,3.2-5.8,4.5c-2.1,1.2-4.4,2.2-6.9,2.9s-5,1-7.6,1h-6.1
		c-2.7,0-5.2-0.3-7.7-1c-2.5-0.7-4.7-1.7-6.9-2.9c-2.1-1.3-4.1-2.7-5.8-4.5c-1.8-1.8-3.2-3.7-4.5-5.8c-1.3-2.1-2.2-4.4-2.9-6.8
		c-0.7-2.5-1-5-1-7.6v-28.7h8.2v28.7c0,2.8,0.5,5.5,1.6,8c1.1,2.5,2.6,4.7,4.4,6.5c1.9,1.9,4,3.3,6.5,4.4c2.5,1.1,5.1,1.6,8,1.6h6.1
		c2.8,0,5.5-0.5,8-1.6c2.5-1.1,4.7-2.5,6.5-4.4c1.9-1.9,3.3-4,4.4-6.5c1.1-2.5,1.6-5.1,1.6-8v-28.7H230.2z M250.3,658H242v-57.3h8.2
		V658z M332,629.3c0,4-0.6,7.7-1.9,11.2c-1.3,3.5-3.1,6.5-5.4,9.1c-2.3,2.6-5.1,4.6-8.4,6.1c-3.2,1.5-6.9,2.3-10.8,2.3h-29.1v-8.2
		h29.1c2.8,0,5.4-0.5,7.7-1.6c2.3-1.1,4.2-2.5,5.7-4.4c1.6-1.9,2.8-4,3.6-6.5c0.8-2.5,1.3-5.1,1.3-8c0-2.8-0.4-5.5-1.3-8
		s-2.1-4.6-3.6-6.5c-1.6-1.9-3.5-3.3-5.7-4.4c-2.3-1.1-4.8-1.6-7.7-1.6h-33.1V658h-8.2v-57.3h41.4c4,0,7.6,0.8,10.8,2.3
		c3.2,1.5,6.1,3.5,8.4,6.2c2.3,2.6,4.1,5.6,5.4,9.1C331.4,621.7,332,625.4,332,629.3L332,629.3z"/>

		<linearGradient id="path1088_00000181803576696994632500000006616298329321082288_" gradientUnits="userSpaceOnUse" x1="3221.1519" y1="-435.3383" x2="3643.1519" y2="-435.3383" gradientTransform="matrix(0.3313 0 0 -0.3313 -724.6276 485.1129)">
		<stop  offset="0" style="stop-color:#FFDB2D"/>
		<stop  offset="1" style="stop-color:#FFC42D"/>
	</linearGradient>
	<path id="path1088" style="fill:url(#path1088_00000181803576696994632500000006616298329321082288_);" d="M409.1,621.1
		c0,2.8-0.5,5.5-1.6,8c-1.1,2.5-2.6,4.7-4.4,6.5s-4,3.3-6.5,4.4c-2.5,1.1-5.2,1.6-8,1.6h-33.1v-8.1h33.1c1.7,0,3.3-0.3,4.8-1
		c1.5-0.7,2.8-1.5,3.9-2.7c1.1-1.1,2-2.4,2.6-3.9c0.6-1.5,1-3.1,1-4.8c0-1.7-0.3-3.3-1-4.8c-0.6-1.5-1.5-2.8-2.6-3.9
		c-1.1-1.1-2.4-2-3.9-2.6c-1.5-0.6-3.1-1-4.8-1h-37.7V658h-8.2v-57.3h45.9c2.8,0,5.5,0.5,8,1.6s4.7,2.6,6.5,4.4
		c1.9,1.9,3.3,4,4.4,6.5C408.5,615.7,409.1,618.3,409.1,621.1z M482.4,641.6c0,2.3-0.5,4.4-1.6,6.4s-2.6,3.7-4.4,5.2
		c-1.9,1.5-4,2.7-6.5,3.5c-2.5,0.9-5.2,1.3-8,1.3h-46.1v-8.2h46c1.7,0,3.3-0.2,4.8-0.6c1.5-0.4,2.8-1,3.9-1.8c1.1-0.7,2-1.6,2.7-2.6
		c0.7-1,1-2.1,1-3.2v-4.1h-37.8c-2.8,0-5.5-0.5-8-1.6c-2.5-1.1-4.7-2.5-6.6-4.4s-3.3-4-4.4-6.5c-1.1-2.5-1.6-5.1-1.6-8v-16.4h8.2
		v16.4c0,1.7,0.3,3.3,1,4.8c0.6,1.5,1.5,2.8,2.6,3.9c1.1,1.1,2.4,2,3.9,2.6c1.5,0.6,3.1,1,4.8,1h37.8v-28.7h8.2L482.4,641.6z"/>
	<path id="path1130" class="st2" d="M240.7,74.2c-2.4-6.4-6.4-11.9-11.7-16.2l-57.6-46h-14.3L99.5,58c-5.3,4.3-9.4,9.8-11.7,16.2
		c-4.3,11.6-2.7,24.6,4.3,34.7s18.6,16.2,31,16.2h82.4c12.3,0,23.9-6.1,31-16.2C243.4,98.7,245,85.7,240.7,74.2z"/>
	<path id="path1132" class="st3" d="M194.8,241.2c6.5,13.9,20.6,23.5,36.9,23.5c15.4,0,29.3-8.5,36.3-22.2l-15.1-7.7
		c-4.1,8-12.2,12.9-21.2,12.9c-13.1,0-23.7-10.7-23.7-23.7v-32.3v-16.5l3.2-11.8c6.4-24.2,6.4-49.8,0-74.1
		c-6.5-24.2-19.3-46.4-37-64.1l-9.7-9.7l-9.7,9.7c-17.7,17.7-30.5,39.9-37,64.1c-6.5,24.2-6.5,49.8,0,74.1l3.2,11.8v16.5v32.3
		c0,13.1-10.7,23.7-23.7,23.7c-9,0-17.1-5-21.2-12.9l-15.1,7.7c7,13.7,20.9,22.2,36.3,22.2c16.3,0,30.4-9.6,36.9-23.5h7.4v23.7
		c0,13.1-10.7,23.7-23.7,23.7c-9,0-17.1-5-21.2-12.9l-15.1,7.7c7,13.7,20.9,22.2,36.3,22.2c22.5,0,40.8-18.3,40.8-40.8v-23.7h12.3
		v23.7c0,22.5,18.3,40.8,40.8,40.8c15.4,0,29.3-8.5,36.3-22.2l-15.1-7.7c-4.1,8-12.2,12.9-21.2,12.9c-13.1,0-23.7-10.7-23.7-23.7
		v-23.7L194.8,241.2z"/>
	<circle id="circle1134" class="st4" cx="129.1" cy="163.5" r="17.6"/>
	<path id="path1136" class="st5" d="M129.1,189.6c-14.4,0-26.1-11.7-26.1-26.1c0-14.4,11.7-26.1,26.1-26.1
		c14.4,0,26.1,11.7,26.1,26.1C155.2,177.9,143.5,189.6,129.1,189.6z M129.1,154.4c-5,0-9.1,4.1-9.1,9.1c0,5,4.1,9.1,9.1,9.1
		c5,0,9.1-4.1,9.1-9.1S134.1,154.4,129.1,154.4z"/>
	<circle id="circle1138" class="st6" cx="199.4" cy="163.5" r="17.6"/>
	<path id="path1140" class="st7" d="M199.4,189.6c-14.4,0-26.1-11.7-26.1-26.1c0-14.4,11.7-26.1,26.1-26.1
		c14.4,0,26.1,11.7,26.1,26.1C225.5,177.9,213.8,189.6,199.4,189.6z M199.4,154.4c-5,0-9.1,4.1-9.1,9.1c0,5,4.1,9.1,9.1,9.1
		c5,0,9.1-4.1,9.1-9.1S204.5,154.4,199.4,154.4z"/>
</g>
</svg>
