<?xml version="1.0" encoding="UTF-8" standalone="no"?><!DOCTYPE svg PUBLIC "-//W3C//DTD SVG 1.1//EN" "http://www.w3.org/Graphics/SVG/1.1/DTD/svg11.dtd"><svg width="100%" height="100%" viewBox="0 0 200 380" version="1.1" xmlns="http://www.w3.org/2000/svg" xmlns:xlink="http://www.w3.org/1999/xlink" xml:space="preserve" xmlns:serif="http://www.serif.com/" style="fill-rule:evenodd;clip-rule:evenodd;stroke-linejoin:round;stroke-miterlimit:2;"><g id="Layer-1" serif:id="Layer 1"><g id="g997"><g id="g1248"><path id="rect1085" d="M55.658,108.217l0,99.716l41.267,0l-0.749,-81.963c-15.312,-0.86 -28.818,-6.78 -40.518,-17.753Z" style="fill:#f8a330;fill-rule:nonzero;"/><path id="rect1085-8" d="M145.143,108.999c-11.838,10.73 -25.842,16.403 -42.013,17.026l0.747,81.908l41.266,0l0,-98.934Z" style="fill:#ed1480;fill-rule:nonzero;"/><path id="rect904-7" d="M103.877,217.351l0,137.484l38.349,0c1.617,0 2.919,-2.165 2.919,-4.858l-0,-132.626l-41.268,0Z" style="fill:#ed1480;fill-rule:nonzero;"/><path id="rect904" d="M55.657,217.351l-0,132.626c-0,2.693 1.302,4.858 2.918,4.858l38.349,0l0,-137.484l-41.267,0Z" style="fill:#f8a330;fill-rule:nonzero;"/></g><path id="path1089" d="M64.776,59.386l-0,-0.75c-0,-9.5 3.5,-17.75 10.5,-24.75c7,-7 15.5,-10.5 25.5,-10.5c9.5,-0 17.75,3.5 24.75,10.5c7,7 10.5,15.5 10.5,25.499c-0,9.501 -3.5,17.751 -10.5,24.751c-7,7 -15.5,10.5 -25.5,10.5c-9.5,-0 -17.75,-3.5 -24.75,-10.5c-7,-7 -10.5,-15.25 -10.5,-24.751l-0,0.001Z" style="fill:#6a6a6a;fill-rule:nonzero;"/></g></g></svg>
