<?xml version="1.0" encoding="UTF-8"?>
<svg id="svg1" xmlns="http://www.w3.org/2000/svg" xmlns:svg="http://www.w3.org/2000/svg" xmlns:sodipodi="http://sodipodi.sourceforge.net/DTD/sodipodi-0.dtd" xmlns:inkscape="http://www.inkscape.org/namespaces/inkscape" version="1.1" viewBox="0 0 781.5 781.5">
  <!-- Generator: Adobe Illustrator 29.1.0, SVG Export Plug-In . SVG Version: 2.1.0 Build 142)  -->
  <defs>
    <style>
      .st0 {
        font-family: ArialMT, Arial;
        font-size: 130.7px;
        isolation: isolate;
      }

      .st1 {
        fill: #fff;
      }

      .st1, .st2, .st3 {
        stroke: #000;
        stroke-linejoin: round;
        stroke-width: 8.3px;
      }

      .st2 {
        fill: #343434;
      }

      .st3 {
        fill: #b4b4b4;
      }
    </style>
  </defs>
  <sodipodi:namedview id="namedview1" bordercolor="#000000" borderopacity="0.25" inkscape:current-layer="svg1" inkscape:cx="43.490196" inkscape:cy="46" inkscape:deskcolor="#d1d1d1" inkscape:pagecheckerboard="0" inkscape:pageopacity="0.0" inkscape:showpageshadow="2" inkscape:window-height="1369" inkscape:window-maximized="1" inkscape:window-width="5120" inkscape:window-x="-8" inkscape:window-y="-8" inkscape:zoom="12.75" pagecolor="#ffffff" showgrid="false"/>
  <g id="g1">
    <path id="path2431" class="st1" d="M306.3,762.9c-186.2-28.4-255.5-165.3-255.5-165.3,90.2,141.1,359,76,441.6,20.9,103.5-69.3,66.8-127.7,56.7-151.1,45.1,60.1,44.3,196.2-9.2,245.5-46.8,42.5-127.7,65.9-233.7,50.1h0Z"/>
    <path id="path2433" class="st2" d="M714.5,378c24.2-59.3,6.7-104.3,4.2-111-5.8-10.8-12.5-19.2-20-25.9-134.4-105.2-466.7,8.3-591.9,140.2-91,96-84.3,167-55.9,215.3,25.9,40.1,66,63.5,111.9,75.1-96-103.5,81.8-259.6,242.1-317.2,175.3-62.6,271.3-25,309.7,23.4Z"/>
    <path id="path2435" class="st1" d="M678.6,435.7c75.1-87.7,41.7-164.5,40.1-170.3,0,0,36.7,59.3,18.4,188.7-10,70.9-45.1,133.6-84.3,98.5-17.5-15-25-57.6,25.9-116.9Z"/>
    <path id="path2437" class="st3" d="M548.4,467.4c-27.5-40-67.6-61.8-102.7-90.1-18.4-14.2-136.9-93.5-160.3-126.1-53.4-53.4-79.3-141.1-28.4-192.9-36.7-6.7-68.4,1.7-88.5,12.5-9.2,5-17.5,10-23.4,16.7-55.9,51.8-48.4,141.9-13.4,202.9,37.6,65.1,110.2,128.6,202.9,190.3,42.6,28.4,130.2,70.1,161.1,133.6,97.7-67.6,63.5-124.4,52.6-146.9h0Z"/>
    <path id="path2439" class="st1" d="M337.2,96.7c65.9,52.6,103.5,81.8,167,71,47.6-8.3,40.9-65.9-33.4-113.5-36.7-23.3-78.5-35.1-131.1-35.1s-136.1,32.6-172,53.4c33.4-19.2,99.4-31.7,169.5,24.2Z"/>
  </g>
  <text id="text1" class="st0" transform="translate(649.5 769)"><tspan x="0" y="0">®</tspan></text>
</svg>
