<?xml version="1.0" encoding="UTF-8" standalone="no"?><!DOCTYPE svg PUBLIC "-//W3C//DTD SVG 1.1//EN" "http://www.w3.org/Graphics/SVG/1.1/DTD/svg11.dtd"><svg width="100%" height="100%" viewBox="0 0 358 213" version="1.1" xmlns="http://www.w3.org/2000/svg" xmlns:xlink="http://www.w3.org/1999/xlink" xml:space="preserve" xmlns:serif="http://www.serif.com/" style="fill-rule:evenodd;clip-rule:evenodd;stroke-linejoin:round;stroke-miterlimit:2;"><rect id="Artboard2" x="-142" y="-327.539" width="800" height="600" style="fill:none;"/><g id="anndata"></g><g id="mudata"></g><path id="shrimp" d="M155.824,71.939l-127.081,0c-1.959,4.648 -6.555,7.91 -11.913,7.91c-7.136,0 -12.922,-5.786 -12.922,-12.92c0,-7.138 5.786,-12.923 12.922,-12.923c5.389,0 10.005,3.303 11.942,7.991l122.719,0c0.047,0.233 0.06,0.476 0.111,0.708c0.75,3.377 2.242,6.43 4.222,9.234Zm-3.648,-27.926l-70.444,0c-1.957,4.648 -6.554,7.91 -11.913,7.91c-7.136,0 -12.921,-5.785 -12.921,-12.922c0,-7.136 5.785,-12.922 12.921,-12.922c5.389,0 10.005,3.303 11.943,7.991l74.105,0c-1.597,3.312 -2.841,6.64 -3.691,9.943Zm196.316,55.578c6.631,9.842 4.842,30.711 -11.633,39.341c-14.816,7.759 -31.969,4.338 -38.599,-5.504c-6.628,-9.842 7.564,-10.835 21.436,-20.178c13.872,-9.344 22.168,-23.501 28.796,-13.659Zm-25.998,-54.726c13.593,14.632 10.9,39.229 -6.014,54.938c-16.912,15.71 -41.64,16.584 -55.23,1.952c-13.592,-14.633 9.097,-17.701 26.009,-33.412c16.913,-15.709 21.644,-38.11 35.235,-23.478Zm-119.663,-12.714c6.08,-0.958 11.785,3.191 12.744,9.271c0.957,6.079 -3.192,11.785 -9.271,12.744c-6.08,0.959 -11.785,-3.192 -12.744,-9.272c-0.96,-6.077 3.192,-11.783 9.271,-12.743Zm-36.603,27.306c2.675,12.042 32.859,23.553 67.936,18.02c35.079,-5.535 60.912,-26.511 57.703,-46.854c-3.209,-20.344 -34.247,-32.348 -69.324,-26.814c-35.077,5.533 -60.78,35.542 -56.315,55.648Zm170.671,95.435c-11.695,-4.772 -25.923,15.594 -30.536,26.894c-4.613,11.301 -9.655,21.308 2.041,26.081c11.694,4.775 22.339,-1.953 29.528,-11.817c8.67,-11.896 10.662,-36.383 -1.033,-41.158" style="fill:url(#_Linear1);fill-rule:nonzero;"/><defs><linearGradient id="_Linear1" x1="0" y1="0" x2="1" y2="0" gradientUnits="userSpaceOnUse" gradientTransform="matrix(-223.197,-146.141,146.141,-223.197,340.61,173.619)"><stop offset="0" style="stop-color:#ed1480;stop-opacity:1"/><stop offset="0.82" style="stop-color:#f6851f;stop-opacity:1"/><stop offset="1" style="stop-color:#f8a330;stop-opacity:1"/></linearGradient></defs></svg>
